<?xml version="1.0" ?><svg baseProfile="tiny" height="24px" id="Layer_1" version="1.2" viewBox="0 0 24 24" width="24px" xml:space="preserve" xmlns="http://www.w3.org/2000/svg" xmlns:xlink="http://www.w3.org/1999/xlink"><g><path d="M21,14h-6c-0.553,0-1-0.448-1-1s0.447-1,1-1h6c0.553,0,1,0.448,1,1S21.553,14,21,14z"/></g><g><path d="M18,17c-0.553,0-1-0.448-1-1v-6c0-0.552,0.447-1,1-1s1,0.448,1,1v6C19,16.552,18.553,17,18,17z"/></g><g><path d="M9,6c1.654,0,3,1.346,3,3s-1.346,3-3,3s-3-1.346-3-3S7.346,6,9,6 M9,4C6.236,4,4,6.238,4,9s2.236,5,5,5s5-2.238,5-5   S11.764,4,9,4z"/></g><g><g><path d="M9,17c2.021,0,3.301,0.771,3.783,1.445C12.1,18.705,10.814,19,9,19c-1.984,0-3.206-0.305-3.818-0.542    C5.641,17.743,6.959,17,9,17 M9,15c-3.75,0-6,2-6,4c0,1,2.25,2,6,2c3.518,0,6-1,6-2C15,17,12.646,15,9,15z"/></g></g></svg>